<mxfile host="65bd71144e">
    <diagram id="kEAk5E4sueSNhkrZwSpj" name="Page-1">
        <mxGraphModel dx="1428" dy="662" grid="0" gridSize="10" guides="1" tooltips="1" connect="1" arrows="1" fold="1" page="1" pageScale="1" pageWidth="1654" pageHeight="1169" math="0" shadow="0">
            <root>
                <mxCell id="0"/>
                <mxCell id="1" parent="0"/>
                <mxCell id="5" style="edgeStyle=none;html=1;exitX=0.5;exitY=1;exitDx=0;exitDy=0;entryX=0.5;entryY=0;entryDx=0;entryDy=0;" parent="1" source="2" target="4" edge="1">
                    <mxGeometry relative="1" as="geometry"/>
                </mxCell>
                <mxCell id="2" value="Start" style="ellipse;whiteSpace=wrap;html=1;" parent="1" vertex="1">
                    <mxGeometry x="180" y="120" width="80" height="50" as="geometry"/>
                </mxCell>
                <mxCell id="6" style="edgeStyle=none;html=1;exitX=1;exitY=0.5;exitDx=0;exitDy=0;entryX=1;entryY=0.5;entryDx=0;entryDy=0;" parent="1" source="4" target="4" edge="1">
                    <mxGeometry relative="1" as="geometry">
                        <mxPoint x="400" y="270" as="targetPoint"/>
                    </mxGeometry>
                </mxCell>
                <mxCell id="8" style="edgeStyle=none;html=1;exitX=1;exitY=0.5;exitDx=0;exitDy=0;entryX=0;entryY=0.5;entryDx=0;entryDy=0;" parent="1" source="4" target="7" edge="1">
                    <mxGeometry relative="1" as="geometry"/>
                </mxCell>
                <mxCell id="4" value="visit Website" style="rounded=1;whiteSpace=wrap;html=1;" parent="1" vertex="1">
                    <mxGeometry x="160" y="240" width="120" height="60" as="geometry"/>
                </mxCell>
                <mxCell id="9" style="edgeStyle=none;html=1;exitX=0.5;exitY=0;exitDx=0;exitDy=0;" parent="1" source="7" edge="1">
                    <mxGeometry relative="1" as="geometry">
                        <mxPoint x="220" y="190" as="targetPoint"/>
                        <Array as="points">
                            <mxPoint x="385" y="190"/>
                        </Array>
                    </mxGeometry>
                </mxCell>
                <mxCell id="11" value="" style="edgeStyle=none;html=1;" parent="1" source="7" target="10" edge="1">
                    <mxGeometry relative="1" as="geometry"/>
                </mxCell>
                <mxCell id="7" value="Login?" style="rhombus;whiteSpace=wrap;html=1;" parent="1" vertex="1">
                    <mxGeometry x="345" y="230" width="80" height="80" as="geometry"/>
                </mxCell>
                <mxCell id="13" value="" style="edgeStyle=none;html=1;" parent="1" source="10" target="12" edge="1">
                    <mxGeometry relative="1" as="geometry"/>
                </mxCell>
                <mxCell id="18" value="" style="edgeStyle=none;html=1;" parent="1" source="10" target="17" edge="1">
                    <mxGeometry relative="1" as="geometry"/>
                </mxCell>
                <mxCell id="10" value="is admin?" style="rhombus;whiteSpace=wrap;html=1;" parent="1" vertex="1">
                    <mxGeometry x="345" y="345" width="80" height="80" as="geometry"/>
                </mxCell>
                <mxCell id="15" value="" style="edgeStyle=none;html=1;entryX=0.5;entryY=1;entryDx=0;entryDy=0;" parent="1" source="12" target="16" edge="1">
                    <mxGeometry relative="1" as="geometry">
                        <mxPoint x="545" y="290" as="targetPoint"/>
                    </mxGeometry>
                </mxCell>
                <mxCell id="12" value="Log In" style="rounded=1;whiteSpace=wrap;html=1;" parent="1" vertex="1">
                    <mxGeometry x="465" y="370" width="85" height="30" as="geometry"/>
                </mxCell>
                <mxCell id="35" value="" style="edgeStyle=none;html=1;" parent="1" source="16" target="34" edge="1">
                    <mxGeometry relative="1" as="geometry"/>
                </mxCell>
                <mxCell id="16" value="View Admin Dashboard" style="shape=parallelogram;perimeter=parallelogramPerimeter;whiteSpace=wrap;html=1;fixedSize=1;" parent="1" vertex="1">
                    <mxGeometry x="447.5" y="230" width="120" height="60" as="geometry"/>
                </mxCell>
                <mxCell id="20" value="" style="edgeStyle=none;html=1;" parent="1" source="17" target="19" edge="1">
                    <mxGeometry relative="1" as="geometry"/>
                </mxCell>
                <mxCell id="22" value="" style="edgeStyle=none;html=1;" parent="1" source="17" target="21" edge="1">
                    <mxGeometry relative="1" as="geometry"/>
                </mxCell>
                <mxCell id="17" value="have an Account" style="rhombus;whiteSpace=wrap;html=1;" parent="1" vertex="1">
                    <mxGeometry x="342.5" y="460" width="80" height="80" as="geometry"/>
                </mxCell>
                <mxCell id="29" style="edgeStyle=none;html=1;exitX=0.5;exitY=1;exitDx=0;exitDy=0;entryX=1;entryY=0.5;entryDx=0;entryDy=0;" parent="1" source="19" target="21" edge="1">
                    <mxGeometry relative="1" as="geometry">
                        <Array as="points">
                            <mxPoint x="540" y="600"/>
                        </Array>
                    </mxGeometry>
                </mxCell>
                <mxCell id="19" value="Register account" style="rounded=1;whiteSpace=wrap;html=1;" parent="1" vertex="1">
                    <mxGeometry x="490" y="480" width="100" height="40" as="geometry"/>
                </mxCell>
                <mxCell id="24" value="" style="edgeStyle=none;html=1;" parent="1" source="21" target="23" edge="1">
                    <mxGeometry relative="1" as="geometry"/>
                </mxCell>
                <mxCell id="21" value="Enter Credentials" style="rounded=1;whiteSpace=wrap;html=1;" parent="1" vertex="1">
                    <mxGeometry x="340" y="580" width="85" height="40" as="geometry"/>
                </mxCell>
                <mxCell id="26" value="" style="edgeStyle=none;html=1;entryX=0.5;entryY=0;entryDx=0;entryDy=0;" parent="1" source="23" target="27" edge="1">
                    <mxGeometry relative="1" as="geometry">
                        <mxPoint x="382" y="810" as="targetPoint"/>
                    </mxGeometry>
                </mxCell>
                <mxCell id="23" value="Check Credentials" style="rounded=1;whiteSpace=wrap;html=1;" parent="1" vertex="1">
                    <mxGeometry x="340" y="650" width="85" height="40" as="geometry"/>
                </mxCell>
                <mxCell id="28" style="edgeStyle=none;html=1;exitX=0;exitY=0.5;exitDx=0;exitDy=0;" parent="1" source="27" edge="1">
                    <mxGeometry relative="1" as="geometry">
                        <mxPoint x="383" y="560" as="targetPoint"/>
                        <Array as="points">
                            <mxPoint x="210" y="770"/>
                            <mxPoint x="210" y="560"/>
                        </Array>
                    </mxGeometry>
                </mxCell>
                <mxCell id="31" style="edgeStyle=none;html=1;exitX=1;exitY=0.5;exitDx=0;exitDy=0;" parent="1" source="27" target="30" edge="1">
                    <mxGeometry relative="1" as="geometry"/>
                </mxCell>
                <mxCell id="27" value="Valid Credentials" style="rhombus;whiteSpace=wrap;html=1;" parent="1" vertex="1">
                    <mxGeometry x="342.5" y="730" width="80" height="80" as="geometry"/>
                </mxCell>
                <mxCell id="54" value="" style="edgeStyle=none;html=1;entryX=0.5;entryY=0;entryDx=0;entryDy=0;" parent="1" source="30" target="60" edge="1">
                    <mxGeometry relative="1" as="geometry"/>
                </mxCell>
                <mxCell id="30" value="View User Page" style="shape=parallelogram;perimeter=parallelogramPerimeter;whiteSpace=wrap;html=1;fixedSize=1;" parent="1" vertex="1">
                    <mxGeometry x="465" y="750" width="130" height="40" as="geometry"/>
                </mxCell>
                <mxCell id="37" value="" style="edgeStyle=none;html=1;" parent="1" source="34" target="36" edge="1">
                    <mxGeometry relative="1" as="geometry"/>
                </mxCell>
                <mxCell id="39" value="" style="edgeStyle=none;html=1;" parent="1" source="34" target="38" edge="1">
                    <mxGeometry relative="1" as="geometry"/>
                </mxCell>
                <mxCell id="34" value="&lt;span style=&quot;color: rgb(0, 0, 0);&quot;&gt;Reviews MarketPlace&amp;nbsp;&lt;/span&gt;&lt;br&gt;&lt;span style=&quot;color: rgb(0, 0, 0);&quot;&gt;posts?&lt;/span&gt;" style="rhombus;whiteSpace=wrap;html=1;" parent="1" vertex="1">
                    <mxGeometry x="640" y="220" width="110" height="80" as="geometry"/>
                </mxCell>
                <mxCell id="75" style="edgeStyle=none;html=1;exitX=0.5;exitY=1;exitDx=0;exitDy=0;entryX=0.5;entryY=0;entryDx=0;entryDy=0;" parent="1" source="36" target="74" edge="1">
                    <mxGeometry relative="1" as="geometry"/>
                </mxCell>
                <mxCell id="36" value="review post" style="whiteSpace=wrap;html=1;" parent="1" vertex="1">
                    <mxGeometry x="655" y="335" width="80" height="30" as="geometry"/>
                </mxCell>
                <mxCell id="43" value="" style="edgeStyle=none;html=1;" parent="1" source="38" target="42" edge="1">
                    <mxGeometry relative="1" as="geometry"/>
                </mxCell>
                <mxCell id="45" value="" style="edgeStyle=none;html=1;" parent="1" source="38" target="44" edge="1">
                    <mxGeometry relative="1" as="geometry"/>
                </mxCell>
                <mxCell id="38" value="add Acessories?" style="rhombus;whiteSpace=wrap;html=1;" parent="1" vertex="1">
                    <mxGeometry x="787" y="220" width="80" height="80" as="geometry"/>
                </mxCell>
                <mxCell id="99" style="edgeStyle=none;html=1;exitX=0.5;exitY=1;exitDx=0;exitDy=0;entryX=1;entryY=1;entryDx=0;entryDy=0;" parent="1" source="42" target="94" edge="1">
                    <mxGeometry relative="1" as="geometry">
                        <Array as="points">
                            <mxPoint x="827" y="414"/>
                        </Array>
                    </mxGeometry>
                </mxCell>
                <mxCell id="42" value="Add Accessories" style="whiteSpace=wrap;html=1;" parent="1" vertex="1">
                    <mxGeometry x="792" y="330" width="70" height="35" as="geometry"/>
                </mxCell>
                <mxCell id="47" style="edgeStyle=none;html=1;exitX=0.5;exitY=1;exitDx=0;exitDy=0;entryX=0.5;entryY=0;entryDx=0;entryDy=0;" parent="1" source="44" target="46" edge="1">
                    <mxGeometry relative="1" as="geometry"/>
                </mxCell>
                <mxCell id="49" value="" style="edgeStyle=none;html=1;" parent="1" source="44" target="48" edge="1">
                    <mxGeometry relative="1" as="geometry"/>
                </mxCell>
                <mxCell id="44" value="Add Breeds?" style="rhombus;whiteSpace=wrap;html=1;" parent="1" vertex="1">
                    <mxGeometry x="900" y="220" width="80" height="80" as="geometry"/>
                </mxCell>
                <mxCell id="98" style="edgeStyle=none;html=1;exitX=0.5;exitY=1;exitDx=0;exitDy=0;entryX=0.5;entryY=1;entryDx=0;entryDy=0;" parent="1" source="46" target="94" edge="1">
                    <mxGeometry relative="1" as="geometry">
                        <Array as="points">
                            <mxPoint x="940" y="400"/>
                        </Array>
                    </mxGeometry>
                </mxCell>
                <mxCell id="46" value="Add Breeds" style="whiteSpace=wrap;html=1;" parent="1" vertex="1">
                    <mxGeometry x="905" y="335" width="70" height="35" as="geometry"/>
                </mxCell>
                <mxCell id="51" style="edgeStyle=none;html=1;exitX=0.5;exitY=1;exitDx=0;exitDy=0;entryX=0.5;entryY=0;entryDx=0;entryDy=0;" parent="1" source="48" target="50" edge="1">
                    <mxGeometry relative="1" as="geometry"/>
                </mxCell>
                <mxCell id="52" style="edgeStyle=none;html=1;exitX=1;exitY=0.5;exitDx=0;exitDy=0;entryX=0;entryY=0.5;entryDx=0;entryDy=0;" parent="1" source="48" target="94" edge="1">
                    <mxGeometry relative="1" as="geometry">
                        <mxPoint x="1200" y="380" as="targetPoint"/>
                        <Array as="points">
                            <mxPoint x="1200" y="260"/>
                        </Array>
                    </mxGeometry>
                </mxCell>
                <mxCell id="48" value="Manage&amp;nbsp;&lt;div&gt;Users?&lt;/div&gt;" style="rhombus;whiteSpace=wrap;html=1;" parent="1" vertex="1">
                    <mxGeometry x="1020" y="220" width="90" height="80" as="geometry"/>
                </mxCell>
                <mxCell id="95" style="edgeStyle=none;html=1;exitX=0.5;exitY=1;exitDx=0;exitDy=0;entryX=0;entryY=1;entryDx=0;entryDy=0;" parent="1" source="50" target="94" edge="1">
                    <mxGeometry relative="1" as="geometry">
                        <Array as="points">
                            <mxPoint x="1070" y="386"/>
                        </Array>
                    </mxGeometry>
                </mxCell>
                <mxCell id="50" value="manage User" style="whiteSpace=wrap;html=1;" parent="1" vertex="1">
                    <mxGeometry x="1030" y="335" width="70" height="35" as="geometry"/>
                </mxCell>
                <mxCell id="57" value="" style="edgeStyle=none;html=1;" parent="1" source="53" target="56" edge="1">
                    <mxGeometry relative="1" as="geometry"/>
                </mxCell>
                <mxCell id="80" style="edgeStyle=none;html=1;exitX=0.5;exitY=1;exitDx=0;exitDy=0;entryX=0;entryY=0.5;entryDx=0;entryDy=0;entryPerimeter=0;" parent="1" source="53" target="84" edge="1">
                    <mxGeometry relative="1" as="geometry">
                        <mxPoint x="630" y="980" as="targetPoint"/>
                        <Array as="points">
                            <mxPoint x="630" y="980"/>
                        </Array>
                    </mxGeometry>
                </mxCell>
                <mxCell id="53" value="Browse pets" style="rhombus;whiteSpace=wrap;html=1;" parent="1" vertex="1">
                    <mxGeometry x="590" y="840" width="80" height="80" as="geometry"/>
                </mxCell>
                <mxCell id="59" value="" style="edgeStyle=none;html=1;" parent="1" source="56" target="58" edge="1">
                    <mxGeometry relative="1" as="geometry"/>
                </mxCell>
                <mxCell id="81" style="edgeStyle=none;html=1;exitX=0.5;exitY=1;exitDx=0;exitDy=0;" parent="1" source="56" target="84" edge="1">
                    <mxGeometry relative="1" as="geometry">
                        <mxPoint x="740" y="980" as="targetPoint"/>
                    </mxGeometry>
                </mxCell>
                <mxCell id="56" value="Browse&lt;br&gt;Acessories" style="rhombus;whiteSpace=wrap;html=1;" parent="1" vertex="1">
                    <mxGeometry x="700" y="840" width="80" height="80" as="geometry"/>
                </mxCell>
                <mxCell id="64" value="" style="edgeStyle=none;html=1;" parent="1" source="58" target="63" edge="1">
                    <mxGeometry relative="1" as="geometry"/>
                </mxCell>
                <mxCell id="82" style="edgeStyle=none;html=1;exitX=0.5;exitY=1;exitDx=0;exitDy=0;entryX=1;entryY=0.5;entryDx=0;entryDy=0;" parent="1" source="58" target="84" edge="1">
                    <mxGeometry relative="1" as="geometry">
                        <mxPoint x="860" y="980" as="targetPoint"/>
                        <Array as="points">
                            <mxPoint x="860" y="980"/>
                        </Array>
                    </mxGeometry>
                </mxCell>
                <mxCell id="58" value="Browse&lt;br&gt;Marketplace" style="rhombus;whiteSpace=wrap;html=1;" parent="1" vertex="1">
                    <mxGeometry x="820" y="840" width="80" height="80" as="geometry"/>
                </mxCell>
                <mxCell id="61" style="edgeStyle=none;html=1;exitX=1;exitY=0.5;exitDx=0;exitDy=0;entryX=0;entryY=0.5;entryDx=0;entryDy=0;" parent="1" source="60" target="53" edge="1">
                    <mxGeometry relative="1" as="geometry"/>
                </mxCell>
                <mxCell id="89" style="edgeStyle=none;html=1;exitX=0.5;exitY=1;exitDx=0;exitDy=0;entryX=0;entryY=0.5;entryDx=0;entryDy=0;" parent="1" source="60" target="90" edge="1">
                    <mxGeometry relative="1" as="geometry">
                        <mxPoint x="650" y="1120" as="targetPoint"/>
                        <Array as="points">
                            <mxPoint x="528" y="1120"/>
                        </Array>
                    </mxGeometry>
                </mxCell>
                <mxCell id="60" value="Browse?" style="rhombus;whiteSpace=wrap;html=1;" parent="1" vertex="1">
                    <mxGeometry x="487.5" y="840" width="80" height="80" as="geometry"/>
                </mxCell>
                <mxCell id="66" value="" style="edgeStyle=none;html=1;" parent="1" source="63" target="65" edge="1">
                    <mxGeometry relative="1" as="geometry"/>
                </mxCell>
                <mxCell id="63" value="Sell pet" style="rhombus;whiteSpace=wrap;html=1;" parent="1" vertex="1">
                    <mxGeometry x="950" y="840" width="80" height="80" as="geometry"/>
                </mxCell>
                <mxCell id="68" value="" style="edgeStyle=none;html=1;entryX=1;entryY=0.5;entryDx=0;entryDy=0;" parent="1" source="65" target="83" edge="1">
                    <mxGeometry relative="1" as="geometry">
                        <mxPoint x="900" y="750" as="targetPoint"/>
                    </mxGeometry>
                </mxCell>
                <mxCell id="70" value="" style="edgeStyle=none;html=1;entryX=0;entryY=0.5;entryDx=0;entryDy=0;" parent="1" source="65" target="71" edge="1">
                    <mxGeometry relative="1" as="geometry">
                        <mxPoint x="1110" y="750" as="targetPoint"/>
                    </mxGeometry>
                </mxCell>
                <mxCell id="65" value="is logged in?" style="rhombus;whiteSpace=wrap;html=1;" parent="1" vertex="1">
                    <mxGeometry x="950" y="710" width="80" height="80" as="geometry"/>
                </mxCell>
                <mxCell id="71" value="Login" style="rounded=0;whiteSpace=wrap;html=1;" parent="1" vertex="1">
                    <mxGeometry x="1080" y="730" width="70" height="40" as="geometry"/>
                </mxCell>
                <mxCell id="77" value="" style="edgeStyle=none;html=1;" parent="1" source="74" target="76" edge="1">
                    <mxGeometry relative="1" as="geometry"/>
                </mxCell>
                <mxCell id="79" value="" style="edgeStyle=none;html=1;" parent="1" source="74" target="78" edge="1">
                    <mxGeometry relative="1" as="geometry"/>
                </mxCell>
                <mxCell id="74" value="acccept post&amp;nbsp;" style="rhombus;whiteSpace=wrap;html=1;" parent="1" vertex="1">
                    <mxGeometry x="655" y="420" width="80" height="80" as="geometry"/>
                </mxCell>
                <mxCell id="100" style="edgeStyle=none;html=1;exitX=1;exitY=0.25;exitDx=0;exitDy=0;entryX=1;entryY=1;entryDx=0;entryDy=0;" parent="1" source="76" target="94" edge="1">
                    <mxGeometry relative="1" as="geometry">
                        <Array as="points">
                            <mxPoint x="1186" y="538"/>
                        </Array>
                    </mxGeometry>
                </mxCell>
                <mxCell id="76" value="Remove post" style="whiteSpace=wrap;html=1;" parent="1" vertex="1">
                    <mxGeometry x="652.5" y="530" width="85" height="30" as="geometry"/>
                </mxCell>
                <mxCell id="101" style="edgeStyle=none;html=1;exitX=1;exitY=0.5;exitDx=0;exitDy=0;" parent="1" source="78" edge="1">
                    <mxGeometry relative="1" as="geometry">
                        <mxPoint x="1186" y="460" as="targetPoint"/>
                    </mxGeometry>
                </mxCell>
                <mxCell id="78" value="Add to the marketplace" style="whiteSpace=wrap;html=1;" parent="1" vertex="1">
                    <mxGeometry x="767" y="440" width="100" height="40" as="geometry"/>
                </mxCell>
                <mxCell id="83" value="Fill up and submit post form" style="rounded=0;whiteSpace=wrap;html=1;" parent="1" vertex="1">
                    <mxGeometry x="792" y="725" width="90" height="50" as="geometry"/>
                </mxCell>
                <mxCell id="86" value="" style="edgeStyle=none;html=1;" parent="1" source="84" target="85" edge="1">
                    <mxGeometry relative="1" as="geometry"/>
                </mxCell>
                <mxCell id="84" value="" style="ellipse;whiteSpace=wrap;html=1;aspect=fixed;" parent="1" vertex="1">
                    <mxGeometry x="720" y="960" width="40" height="40" as="geometry"/>
                </mxCell>
                <mxCell id="88" value="" style="edgeStyle=none;html=1;" parent="1" source="85" target="87" edge="1">
                    <mxGeometry relative="1" as="geometry"/>
                </mxCell>
                <mxCell id="85" value="Add To cart&amp;nbsp;" style="whiteSpace=wrap;html=1;" parent="1" vertex="1">
                    <mxGeometry x="690" y="1030" width="100" height="30" as="geometry"/>
                </mxCell>
                <mxCell id="91" style="edgeStyle=none;html=1;exitX=1;exitY=0.5;exitDx=0;exitDy=0;entryX=0.5;entryY=0;entryDx=0;entryDy=0;" parent="1" source="87" target="90" edge="1">
                    <mxGeometry relative="1" as="geometry">
                        <Array as="points">
                            <mxPoint x="1055" y="1045"/>
                        </Array>
                    </mxGeometry>
                </mxCell>
                <mxCell id="87" value="proceed to checkout" style="whiteSpace=wrap;html=1;" parent="1" vertex="1">
                    <mxGeometry x="870" y="1030" width="100" height="30" as="geometry"/>
                </mxCell>
                <mxCell id="92" style="edgeStyle=none;html=1;exitX=1;exitY=0.5;exitDx=0;exitDy=0;" parent="1" source="90" target="93" edge="1">
                    <mxGeometry relative="1" as="geometry">
                        <mxPoint x="1140" y="1119.5714285714287" as="targetPoint"/>
                    </mxGeometry>
                </mxCell>
                <mxCell id="90" value="Exit" style="rounded=0;whiteSpace=wrap;html=1;" parent="1" vertex="1">
                    <mxGeometry x="1020" y="1100" width="70" height="40" as="geometry"/>
                </mxCell>
                <mxCell id="103" style="edgeStyle=none;html=1;exitX=1;exitY=0.5;exitDx=0;exitDy=0;entryX=0;entryY=0.5;entryDx=0;entryDy=0;" parent="1" source="93" target="104" edge="1">
                    <mxGeometry relative="1" as="geometry">
                        <mxPoint x="1250" y="1120.4117647058824" as="targetPoint"/>
                    </mxGeometry>
                </mxCell>
                <mxCell id="93" value="" style="ellipse;whiteSpace=wrap;html=1;aspect=fixed;" parent="1" vertex="1">
                    <mxGeometry x="1170" y="1095" width="50" height="50" as="geometry"/>
                </mxCell>
                <mxCell id="102" style="edgeStyle=none;html=1;exitX=1;exitY=0.5;exitDx=0;exitDy=0;entryX=0.5;entryY=0;entryDx=0;entryDy=0;" parent="1" source="94" target="93" edge="1">
                    <mxGeometry relative="1" as="geometry">
                        <mxPoint x="1200.2941176470588" y="640" as="targetPoint"/>
                    </mxGeometry>
                </mxCell>
                <mxCell id="94" value="" style="ellipse;whiteSpace=wrap;html=1;aspect=fixed;direction=south;" parent="1" vertex="1">
                    <mxGeometry x="1180" y="380" width="40" height="40" as="geometry"/>
                </mxCell>
                <mxCell id="104" value="end" style="ellipse;whiteSpace=wrap;html=1;" parent="1" vertex="1">
                    <mxGeometry x="1260" y="1095" width="70" height="50" as="geometry"/>
                </mxCell>
                <mxCell id="106" value="yes" style="text;html=1;align=center;verticalAlign=middle;resizable=0;points=[];autosize=1;strokeColor=none;fillColor=none;" vertex="1" parent="1">
                    <mxGeometry x="382.5" y="305" width="40" height="30" as="geometry"/>
                </mxCell>
                <mxCell id="107" value="no" style="text;html=1;align=center;verticalAlign=middle;resizable=0;points=[];autosize=1;strokeColor=none;fillColor=none;" vertex="1" parent="1">
                    <mxGeometry x="310" y="170" width="40" height="30" as="geometry"/>
                </mxCell>
                <mxCell id="108" value="yes" style="text;html=1;align=center;verticalAlign=middle;resizable=0;points=[];autosize=1;strokeColor=none;fillColor=none;" vertex="1" parent="1">
                    <mxGeometry x="425" y="360" width="40" height="30" as="geometry"/>
                </mxCell>
                <mxCell id="110" value="yes" style="text;html=1;align=center;verticalAlign=middle;resizable=0;points=[];autosize=1;strokeColor=none;fillColor=none;" vertex="1" parent="1">
                    <mxGeometry x="690" y="300" width="40" height="30" as="geometry"/>
                </mxCell>
                <mxCell id="111" value="yes" style="text;html=1;align=center;verticalAlign=middle;resizable=0;points=[];autosize=1;strokeColor=none;fillColor=none;" vertex="1" parent="1">
                    <mxGeometry x="822" y="300" width="40" height="30" as="geometry"/>
                </mxCell>
                <mxCell id="112" value="yes" style="text;html=1;align=center;verticalAlign=middle;resizable=0;points=[];autosize=1;strokeColor=none;fillColor=none;" vertex="1" parent="1">
                    <mxGeometry x="935" y="305" width="40" height="30" as="geometry"/>
                </mxCell>
                <mxCell id="113" value="yes" style="text;html=1;align=center;verticalAlign=middle;resizable=0;points=[];autosize=1;strokeColor=none;fillColor=none;" vertex="1" parent="1">
                    <mxGeometry x="1060" y="300" width="40" height="30" as="geometry"/>
                </mxCell>
                <mxCell id="114" value="no" style="text;html=1;align=center;verticalAlign=middle;resizable=0;points=[];autosize=1;strokeColor=none;fillColor=none;" vertex="1" parent="1">
                    <mxGeometry x="740" y="230" width="40" height="30" as="geometry"/>
                </mxCell>
                <mxCell id="115" value="no" style="text;html=1;align=center;verticalAlign=middle;resizable=0;points=[];autosize=1;strokeColor=none;fillColor=none;" vertex="1" parent="1">
                    <mxGeometry x="860" y="230" width="40" height="30" as="geometry"/>
                </mxCell>
                <mxCell id="116" value="no" style="text;html=1;align=center;verticalAlign=middle;resizable=0;points=[];autosize=1;strokeColor=none;fillColor=none;" vertex="1" parent="1">
                    <mxGeometry x="970" y="230" width="40" height="30" as="geometry"/>
                </mxCell>
                <mxCell id="117" value="no" style="text;html=1;align=center;verticalAlign=middle;resizable=0;points=[];autosize=1;strokeColor=none;fillColor=none;" vertex="1" parent="1">
                    <mxGeometry x="1110" y="230" width="40" height="30" as="geometry"/>
                </mxCell>
                <mxCell id="118" value="yes" style="text;html=1;align=center;verticalAlign=middle;resizable=0;points=[];autosize=1;strokeColor=none;fillColor=none;" vertex="1" parent="1">
                    <mxGeometry x="720" y="430" width="40" height="30" as="geometry"/>
                </mxCell>
                <mxCell id="119" value="no" style="text;html=1;align=center;verticalAlign=middle;resizable=0;points=[];autosize=1;strokeColor=none;fillColor=none;" vertex="1" parent="1">
                    <mxGeometry x="655" y="500" width="40" height="30" as="geometry"/>
                </mxCell>
                <mxCell id="120" value="no" style="text;html=1;align=center;verticalAlign=middle;resizable=0;points=[];autosize=1;strokeColor=none;fillColor=none;" vertex="1" parent="1">
                    <mxGeometry x="380" y="425" width="40" height="30" as="geometry"/>
                </mxCell>
                <mxCell id="121" value="yes" style="text;html=1;align=center;verticalAlign=middle;resizable=0;points=[];autosize=1;strokeColor=none;fillColor=none;" vertex="1" parent="1">
                    <mxGeometry x="380" y="540" width="40" height="30" as="geometry"/>
                </mxCell>
                <mxCell id="122" value="no" style="text;html=1;align=center;verticalAlign=middle;resizable=0;points=[];autosize=1;strokeColor=none;fillColor=none;" vertex="1" parent="1">
                    <mxGeometry x="440" y="470" width="40" height="30" as="geometry"/>
                </mxCell>
                <mxCell id="123" value="yes" style="text;html=1;align=center;verticalAlign=middle;resizable=0;points=[];autosize=1;strokeColor=none;fillColor=none;" vertex="1" parent="1">
                    <mxGeometry x="420" y="745" width="40" height="30" as="geometry"/>
                </mxCell>
                <mxCell id="124" value="no" style="text;html=1;align=center;verticalAlign=middle;resizable=0;points=[];autosize=1;strokeColor=none;fillColor=none;" vertex="1" parent="1">
                    <mxGeometry x="290" y="745" width="40" height="30" as="geometry"/>
                </mxCell>
                <mxCell id="125" value="yes" style="text;html=1;align=center;verticalAlign=middle;resizable=0;points=[];autosize=1;strokeColor=none;fillColor=none;" vertex="1" parent="1">
                    <mxGeometry x="555" y="850" width="40" height="30" as="geometry"/>
                </mxCell>
                <mxCell id="126" value="yes" style="text;html=1;align=center;verticalAlign=middle;resizable=0;points=[];autosize=1;strokeColor=none;fillColor=none;" vertex="1" parent="1">
                    <mxGeometry x="735" y="920" width="40" height="30" as="geometry"/>
                </mxCell>
                <mxCell id="127" value="yes" style="text;html=1;align=center;verticalAlign=middle;resizable=0;points=[];autosize=1;strokeColor=none;fillColor=none;" vertex="1" parent="1">
                    <mxGeometry x="860" y="920" width="40" height="30" as="geometry"/>
                </mxCell>
                <mxCell id="128" value="yes" style="text;html=1;align=center;verticalAlign=middle;resizable=0;points=[];autosize=1;strokeColor=none;fillColor=none;" vertex="1" parent="1">
                    <mxGeometry x="630" y="930" width="40" height="30" as="geometry"/>
                </mxCell>
                <mxCell id="129" value="no" style="text;html=1;align=center;verticalAlign=middle;resizable=0;points=[];autosize=1;strokeColor=none;fillColor=none;" vertex="1" parent="1">
                    <mxGeometry x="660" y="850" width="40" height="30" as="geometry"/>
                </mxCell>
                <mxCell id="130" value="no" style="text;html=1;align=center;verticalAlign=middle;resizable=0;points=[];autosize=1;strokeColor=none;fillColor=none;" vertex="1" parent="1">
                    <mxGeometry x="775" y="850" width="40" height="30" as="geometry"/>
                </mxCell>
                <mxCell id="131" value="no" style="text;html=1;align=center;verticalAlign=middle;resizable=0;points=[];autosize=1;strokeColor=none;fillColor=none;" vertex="1" parent="1">
                    <mxGeometry x="895" y="850" width="40" height="30" as="geometry"/>
                </mxCell>
                <mxCell id="132" value="yes" style="text;html=1;align=center;verticalAlign=middle;resizable=0;points=[];autosize=1;strokeColor=none;fillColor=none;" vertex="1" parent="1">
                    <mxGeometry x="910" y="725" width="40" height="30" as="geometry"/>
                </mxCell>
                <mxCell id="133" value="no" style="text;html=1;align=center;verticalAlign=middle;resizable=0;points=[];autosize=1;strokeColor=none;fillColor=none;" vertex="1" parent="1">
                    <mxGeometry x="1030" y="730" width="40" height="30" as="geometry"/>
                </mxCell>
            </root>
        </mxGraphModel>
    </diagram>
</mxfile>